# xmcd
#
# Track frame offsets:
#	150
#	19350
#	36301
#	48526
#	78976
#	92476
#	113326
#	135001
#	148652
#	160428
#	178279
#	192154
#
# Disc length: 2803 seconds
#
# Revision: 1
# Processed by: cddbd v1.5.2PL0 Copyright (c) Steve Scherf et al.
# Submitted via: audiograbber 1.83.01
#
DISCID=9a0af10c
DTITLE=Santana - SKG939
DYEAR=2000
DGENRE=Karaoke
TTITLE0=Maria Maria
TTITLE1=Smooth
TTITLE2=Evil Ways
TTITLE3=Crush
TTITLE4=She's Not There
TTITLE5=Hold On
TTITLE6=What's It Like
TTITLE7=Everybody's Watching
TTITLE8=Pursuasion
TTITLE9=All I Ever Wanted
TTITLE10=Sensitive Kind, The
TTITLE11=No One To Depend On
EXTD=
EXTT0=
EXTT1=
EXTT2=
EXTT3=
EXTT4=
EXTT5=
EXTT6=
EXTT7=
EXTT8=
EXTT9=
EXTT10=
EXTT11=
PLAYORDER=
